<?xml version="1.0" standalone="no"?>
<!DOCTYPE svg PUBLIC "-//W3C//DTD SVG 20010904//EN"
 "http://www.w3.org/TR/2001/REC-SVG-20010904/DTD/svg10.dtd">
<svg version="1.0" xmlns="http://www.w3.org/2000/svg"
 width="300.000000pt" height="83.000000pt" viewBox="0 0 300.000000 83.000000"
 preserveAspectRatio="xMidYMid meet">
<metadata>
Created by potrace 1.10, written by Peter Selinger 2001-2011
</metadata>
<g transform="translate(0.000000,83.000000) scale(0.100000,-0.100000)"
fill="#000000" stroke="none">
<path d="M691 821 l-53 -6 -125 -335 c-68 -184 -127 -342 -130 -350 -3 -8 -7
-10 -9 -5 -3 6 -62 163 -132 350 l-129 340 -56 3 c-46 2 -57 0 -57 -13 0 -11
10 -15 38 -15 31 0 41 -5 50 -24 10 -21 8 -26 -8 -31 -42 -13 -45 -36 -48
-362 -3 -264 -6 -313 -18 -313 -8 0 -14 -9 -14 -20 0 -16 7 -20 38 -20 l37 0
-3 351 c-2 237 1 348 8 344 5 -3 10 -14 10 -23 1 -9 56 -163 125 -342 l123
-325 38 0 38 0 121 320 c66 176 125 334 131 350 9 24 12 -46 13 -322 l1 -353
35 0 35 0 0 405 c0 223 -1 404 -2 403 -2 -1 -27 -4 -57 -7z m17 -70 c3 -30 2
-32 -20 -26 -35 11 -39 19 -22 43 21 30 38 23 42 -17z"/>
<path d="M2760 655 l-1 -170 -19 37 c-61 115 -240 131 -343 30 -72 -71 -104
-219 -73 -342 20 -76 51 -128 102 -167 33 -24 48 -28 119 -31 111 -5 151 14
213 104 11 16 12 10 7 -38 l-6 -58 35 0 36 0 0 399 0 399 -35 4 -35 4 0 -171z
m-110 -118 c31 -16 52 -38 74 -77 28 -50 31 -63 31 -145 0 -78 -4 -97 -27
-145 -46 -93 -133 -130 -223 -96 -72 28 -112 93 -122 201 -19 207 117 341 267
262z"/>
<path d="M1906 606 c-70 -26 -126 -98 -126 -161 0 -22 4 -25 35 -25 32 0 35 3
35 29 0 36 34 79 76 97 68 28 164 10 198 -37 21 -30 21 -103 0 -123 -17 -18
-20 -18 -156 -39 -123 -19 -166 -40 -196 -98 -42 -79 -11 -188 62 -223 44 -21
176 -22 215 -1 16 8 46 34 66 57 l37 43 -4 -53 -3 -52 33 0 32 0 0 233 c0 224
-1 236 -23 277 -15 28 -36 51 -61 63 -50 26 -166 33 -220 13z m234 -341 c0
-104 -40 -163 -129 -193 -91 -31 -174 10 -188 92 -12 73 47 115 192 136 44 7
87 16 95 21 27 15 30 10 30 -56z"/>
<path d="M1642 596 c-43 -15 -100 -69 -108 -101 -13 -51 -24 -24 -18 40 l7 65
-37 0 -36 0 0 -290 0 -290 34 0 34 0 4 188 c3 172 5 190 26 229 27 51 81 90
140 99 40 6 42 8 42 40 0 31 -3 34 -27 33 -16 0 -43 -6 -61 -13z"/>
<path d="M882 368 c3 -213 5 -236 24 -273 11 -22 36 -50 55 -63 30 -21 43 -23
120 -20 76 3 90 6 123 32 21 15 42 39 48 52 18 38 25 28 20 -26 l-5 -50 34 0
34 0 0 290 0 290 -35 0 -35 0 0 -188 c0 -213 -10 -258 -70 -311 -81 -70 -209
-45 -235 47 -5 20 -10 130 -10 245 l0 207 -36 0 -35 0 3 -232z"/>
<path d="M2895 115 c-32 -31 -32 -59 1 -91 19 -20 31 -24 52 -19 53 12 70 77
32 115 -27 27 -56 25 -85 -5z m87 -20 c17 -37 -3 -75 -40 -75 -35 0 -52 16
-52 50 0 34 17 50 52 50 21 0 32 -7 40 -25z"/>
<path d="M2917 103 c-11 -11 -8 -73 4 -73 6 0 9 7 5 15 -7 20 3 19 27 -2 19
-17 20 -17 9 3 -8 15 -8 24 0 32 5 5 7 15 4 21 -8 12 -39 15 -49 4z"/>
</g>
</svg>
