<?xml version="1.0" encoding="UTF-8"?>
<svg version="1.1" xmlns="http://www.w3.org/2000/svg" width="2400" height="2400">
<path d="M0 0 C35.2700597 -0.04538314 70.54010989 -0.08111062 105.81019274 -0.10213066 C109.99121904 -0.10463153 114.17224527 -0.10722023 118.35327148 -0.10986328 C119.18550261 -0.1103879 120.01773374 -0.11091252 120.87518399 -0.11145304 C134.28199291 -0.12011296 147.68878435 -0.13585809 161.09558297 -0.15430559 C174.89205297 -0.17312839 188.68851394 -0.18414262 202.48499626 -0.18817699 C210.97148852 -0.19089664 219.45793139 -0.19942785 227.94440841 -0.21583293 C233.79466708 -0.2265534 239.6449009 -0.22956735 245.49516863 -0.22700275 C248.85087803 -0.22574435 252.20643481 -0.2285766 255.56213951 -0.23841095 C313.52161591 -0.39968305 371.57320182 6.38876912 425 30 C425.8151709 30.35674805 426.6303418 30.71349609 427.47021484 31.08105469 C449.86247595 40.97183723 470.40253089 54.09987374 489 70 C490.15822266 70.99 490.15822266 70.99 491.33984375 72 C504.14278443 83.24784139 515.90283104 95.26958974 526 109 C526.83556908 110.10574725 527.67150577 111.2112168 528.5078125 112.31640625 C553.3483997 145.61046925 568.25676896 185.49147129 575.25 226.1875 C575.40122314 227.06349854 575.55244629 227.93949707 575.70825195 228.84204102 C578.47316501 246.11377066 579.38124021 263.40594679 579.3125 280.875 C579.30976578 282.33302032 579.30976578 282.33302032 579.30697632 283.82049561 C579.05420717 364.47773035 553.68452022 438.15548722 497 496.1875 C492.44765618 500.6757263 487.67325038 504.77546128 482.64013672 508.71484375 C481.47647883 509.62664713 480.31706685 510.54388093 479.16064453 511.46484375 C412.58146327 564.42443053 331.09396203 580.23604974 248.05297852 580.11352539 C245.33040845 580.11268129 242.60783924 580.11335932 239.88526917 580.1139679 C234.07488601 580.1144869 228.26451427 580.11140617 222.45413399 580.10573006 C214.05377251 580.09752925 205.65341644 580.09499115 197.25305139 580.09374207 C183.61702139 580.09156487 169.98099743 580.08494129 156.3449707 580.07543945 C143.11547882 580.0662306 129.88598859 580.05916685 116.65649414 580.05493164 C115.838126 580.05466892 115.01975786 580.05440619 114.17659069 580.05413551 C110.07021162 580.05283027 105.96383255 580.05156661 101.85745347 580.05032361 C67.90496441 580.03999256 33.95248338 580.02213163 0 580 C0 572.41 0 564.82 0 557 C3.3 556.7525 6.6 556.505 10 556.25 C27.68876265 554.7099694 46.77673413 551.21122559 59 537 C69.85048782 521.72163634 70.15169325 505.66952125 70.13371277 487.64949036 C70.13558242 485.87391111 70.13788374 484.09833227 70.14057809 482.32275409 C70.14668345 477.4560338 70.14656398 472.58933073 70.14538372 467.72260749 C70.14517939 462.4688674 70.15070153 457.21513279 70.15544128 451.96139526 C70.16374154 441.67280275 70.16649585 431.38421596 70.16705366 421.09562037 C70.16752913 412.73067915 70.16958543 404.36573981 70.17275429 396.00079918 C70.18155927 372.2744161 70.18617392 348.54803753 70.18542381 324.82165281 C70.18536388 322.9037103 70.18536388 322.9037103 70.18530273 320.94702148 C70.18524141 319.02673182 70.18524141 319.02673182 70.18517885 317.06764843 C70.18477246 296.32335406 70.19434076 275.57907784 70.2084411 254.83478872 C70.22281153 233.52466105 70.22971091 212.21454223 70.22884732 190.90440959 C70.22851558 178.94445732 70.23125283 166.98452409 70.24202538 155.02457619 C70.25113915 144.84111584 70.25329841 134.65768316 70.24651595 124.47422049 C70.24325516 119.28164594 70.24317817 114.08912443 70.2518692 108.89655495 C70.25975458 104.13624451 70.258282 99.37602901 70.24958507 94.61572083 C70.24805456 92.90040848 70.24984917 91.18508898 70.25544515 89.46978507 C70.30936459 71.75867436 69.93904744 53.5488796 57 40 C43.21077844 27.17485538 23.44549152 25.05836508 5.5 23.39453125 C2 23 2 23 0 22 C0 14.74 0 7.48 0 0 Z M217.2578125 40.4765625 C210.51379392 47.93887891 209.84324683 57.27933518 209.87136555 66.8500452 C209.86961251 67.61369592 209.86785947 68.37734664 209.86605331 69.16413829 C209.86140597 71.71988184 209.86385556 74.27556819 209.86628723 76.83131409 C209.86441861 78.68353841 209.86211771 80.53576234 209.85942191 82.38798565 C209.85330361 87.47585432 209.85343755 92.56370656 209.85461628 97.65157807 C209.85482029 103.13984755 209.84930151 108.62811176 209.84455872 114.11637878 C209.83625101 124.86913559 209.8335038 135.62188692 209.83294634 146.37464667 C209.83247115 155.1167334 209.83041628 163.85881831 209.82724571 172.60090446 C209.81987141 193.35650017 209.81372095 214.11209479 209.81424427 234.86769199 C209.81425985 235.53136394 209.81427543 236.19503589 209.81429148 236.8788191 C209.81437458 240.24245902 209.81447362 243.60609893 209.81457619 246.96973885 C209.81459613 247.63774856 209.81461608 248.30575826 209.81463663 248.99401069 C209.81467706 250.34489022 209.81471886 251.69576975 209.81476202 253.04664927 C209.81537447 274.05364876 209.80787361 295.06063209 209.79418945 316.06762695 C209.77881486 339.67929312 209.77023676 363.29095155 209.77115268 386.90262359 C209.7714845 399.40028011 209.76874394 411.89791842 209.75797462 424.39557076 C209.74886242 435.03838164 209.74670024 445.68116605 209.75348405 456.32397915 C209.75674584 461.75146987 209.75681826 467.17890984 209.7481308 472.60639572 C209.74024967 477.58143363 209.74171372 482.55638067 209.75041493 487.53141641 C209.75194639 489.32484991 209.75014721 491.11829025 209.74455485 492.91171569 C209.6576752 515.58587187 209.6576752 515.58587187 218.125 536.25 C230.77477287 548.34978275 247.80783698 549.40502908 264.484375 549.1484375 C303.0285512 548.11084052 338.66887048 536.84461964 367 510 C367.8971875 509.16726563 368.794375 508.33453125 369.71875 507.4765625 C376.88141335 500.61569676 382.61244416 493.29986343 388 485 C388.4110498 484.36884277 388.82209961 483.73768555 389.24560547 483.08740234 C424.16355354 428.61758488 429.21945605 358.63044262 429.25 295.625 C429.25067474 294.36743896 429.25134949 293.10987793 429.25204468 291.81420898 C429.23443704 271.06813374 428.58037353 250.59017715 426 230 C425.91278687 229.30015991 425.82557373 228.60031982 425.73571777 227.87927246 C417.92044282 165.96418669 399.14469854 96.82985037 347.63598633 56.61206055 C317.30034316 33.95272821 250.46198495 12.33490962 217.2578125 40.4765625 Z " fill="#000000" transform="translate(1230,909)"/>
<path d="M0 0 C37.23203511 -0.04576962 74.46406515 -0.08109349 111.69612278 -0.10213066 C116.1063345 -0.10463163 120.51654617 -0.10722032 124.92675781 -0.10986328 C125.80463509 -0.1103879 126.68251237 -0.11091252 127.586992 -0.11145304 C141.7427109 -0.12012097 155.89841331 -0.13587071 170.05412248 -0.15430559 C184.61333643 -0.17310575 199.17254183 -0.18413794 213.73176742 -0.18817699 C222.69272842 -0.19090123 231.6536428 -0.19945842 240.61458942 -0.21583293 C246.7858045 -0.22652519 252.956996 -0.22957345 259.12821963 -0.22700275 C262.6718865 -0.22574016 266.21547278 -0.22746871 269.75912476 -0.23841095 C292.75623705 -0.29878647 315.77100448 0.4485926 338.5625 3.75 C340.34116455 4.00487183 340.34116455 4.00487183 342.15576172 4.26489258 C379.02894176 9.78487361 416.76279935 20.35970797 447 43 C448.43085938 44.07121094 448.43085938 44.07121094 449.890625 45.1640625 C477.34924618 66.73869343 494.85012457 96.53875221 499.30761719 131.40625 C503.96701778 170.91561527 498.41371697 212.10505715 473.2734375 244.23828125 C469.65432952 248.63468906 465.91767405 252.86748576 462 257 C461.11828125 257.94617187 460.2365625 258.89234375 459.328125 259.8671875 C414.05023525 307.47280921 346.1355531 318.18417906 283.56596565 319.92669296 C271.36529148 320.17750729 259.15685762 320.08475312 246.95428848 320.05578995 C242.99902967 320.04732748 239.04376632 320.04373591 235.08850098 320.03967285 C227.39232203 320.03107997 219.69616484 320.01730015 212 320 C212.06065108 344.12278637 212.13823302 368.2454676 212.23571491 392.3681345 C212.28059173 403.56987629 212.32002496 414.77158686 212.34643555 425.97338867 C212.36948149 435.74215525 212.40295275 445.51082237 212.44870156 455.27950996 C212.47254508 460.4471586 212.49133181 465.61470927 212.49761391 470.78241158 C212.50370512 475.65716049 212.52384901 480.53165902 212.55427551 485.40631485 C212.56299153 487.18509742 212.56679186 488.9639128 212.56500816 490.74271584 C212.55342065 507.64688369 213.72760517 524.90811638 225.0703125 538.4765625 C240.90227724 553.62758252 266.49576685 554.31162879 287 557 C287.02887512 560.64581687 287.04675585 564.29160463 287.0625 567.9375 C287.07087891 568.97841797 287.07925781 570.01933594 287.08789062 571.09179688 C287.09272461 572.57583008 287.09272461 572.57583008 287.09765625 574.08984375 C287.10551147 575.46450806 287.10551147 575.46450806 287.11352539 576.86694336 C287 579 287 579 286 580 C284.47264781 580.09688002 282.94080569 580.12371701 281.41038418 580.12304783 C280.41214199 580.12503888 279.41389981 580.12702993 278.38540787 580.12908131 C276.72056031 580.12471205 276.72056031 580.12471205 275.02207947 580.12025452 C273.85332907 580.12110894 272.68457867 580.12196337 271.48041159 580.12284368 C268.2218062 580.12421185 264.96324006 580.12106444 261.70463932 580.11606562 C258.19610331 580.11176437 254.68756927 580.11320731 251.17903137 580.1139679 C245.09542846 580.11449334 239.01183623 580.11134443 232.92823601 580.10573006 C224.13227169 580.0976178 215.33631256 580.09500012 206.5403449 580.09374207 C192.27095291 580.09155111 178.00156663 580.08488986 163.73217773 580.07543945 C149.86726917 580.06626645 136.00236215 580.05918507 122.13745117 580.05493164 C121.28343316 580.05466892 120.42941515 580.05440619 119.5495178 580.05413551 C115.26534407 580.05283051 110.98117032 580.05156679 106.69699657 580.05032361 C71.13132682 580.03994965 35.56566431 580.02205578 0 580 C0 572.41 0 564.82 0 557 C2.206875 556.5875 4.41375 556.175 6.6875 555.75 C8.1549592 555.47141362 9.62240832 555.1927741 11.08984375 554.9140625 C14.49366048 554.2722514 17.9021499 553.66953929 21.31640625 553.0859375 C35.86524769 550.55245944 49.08269041 547.92479268 59 536 C70.50278665 517.61724474 71.31821884 496.56055083 71.25396729 475.46728516 C71.25627891 473.78165872 71.25946009 472.09603329 71.26342177 470.41040993 C71.27168212 465.83395905 71.26768494 461.25759282 71.26144934 456.68114185 C71.25688952 451.72400688 71.26392596 446.76688559 71.26940918 441.80975342 C71.27826744 432.12062458 71.27639714 422.43152685 71.2705839 412.74239683 C71.26605331 404.86254339 71.26546053 396.98269861 71.26763153 389.10284424 C71.26809123 387.41577691 71.26809123 387.41577691 71.26856022 385.6946274 C71.26919971 383.40926218 71.26984814 381.12389695 71.2705054 378.83853173 C71.27619824 357.44638754 71.26966724 336.05426053 71.25890467 314.66211915 C71.24997011 296.33658646 71.25152245 278.01107911 71.26074219 259.68554688 C71.27146333 238.36601787 71.27564902 217.0465039 71.26951766 195.72697258 C71.26888061 193.45036698 71.26825187 191.17376137 71.26763153 188.89715576 C71.26732298 187.77724137 71.26701443 186.65732698 71.26669653 185.50347579 C71.26497511 177.63994777 71.26787271 169.77642936 71.27259064 161.91290283 C71.27821999 152.32009389 71.27664001 142.72731765 71.26602915 133.13451242 C71.26079999 128.24719603 71.25866829 123.35993401 71.26532745 118.4726181 C71.27134661 113.98693145 71.26791494 109.50134888 71.25737235 105.01567149 C71.25516333 103.40486463 71.25621731 101.79404871 71.26112393 100.1832478 C71.28444833 91.88018589 71.00697498 83.69587034 70.12084579 75.43545532 C70.04492691 74.71566635 69.96900803 73.99587739 69.89078857 73.25427663 C68.15735754 58.58960868 63.05974458 45.17728128 51.3515625 35.59375 C37.59285947 26.26891473 22.19307648 24.54161123 6.09960938 23.24951172 C4 23 4 23 0 22 C0 14.74 0 7.48 0 0 Z M217.6875 41.25 C212.22318658 47.57545164 211.56146504 54.95650411 211.63923645 62.92150879 C211.63667318 63.89206254 211.6341099 64.8626163 211.63146895 65.86258078 C211.62654622 69.09931395 211.64299929 72.33557576 211.65942383 75.57226562 C211.66027043 77.89853911 211.65979432 80.2248134 211.65809631 82.55108643 C211.65723622 88.85626716 211.67486458 95.1612764 211.69581819 101.46641731 C211.71268048 107.3911701 211.71568918 113.31591639 211.7187738 119.24068993 C211.725331 130.97169015 211.74527222 142.70262759 211.77368164 154.43359375 C211.80124121 165.82551765 211.82246548 177.21742447 211.83520508 188.609375 C211.83599325 189.31220417 211.83678142 190.01503334 211.83759347 190.73916036 C211.84150874 194.26523599 211.84529983 197.79131175 211.84902918 201.31738758 C211.88010227 230.54496588 211.93314192 259.7724821 212 289 C216.11360009 289.01286571 220.22719219 289.02216041 224.34080791 289.02832413 C225.73658102 289.03089712 227.13235276 289.03440048 228.52812099 289.03889847 C238.19250165 289.06923472 247.70471986 288.90345692 257.3125 287.75 C258.50705811 287.61505127 259.70161621 287.48010254 260.93237305 287.34106445 C286.50948675 284.2786124 311.71599965 276.74187102 329.11328125 256.546875 C347.19108157 233.09838837 352.07777124 202.56505374 352.203125 173.6484375 C352.20882507 172.59129547 352.21452515 171.53415344 352.22039795 170.44497681 C352.22978767 168.21462992 352.23635773 165.98426953 352.24023438 163.75390625 C352.24983518 160.43202646 352.28087387 157.11079493 352.3125 153.7890625 C352.48420984 119.16535557 348.58075914 78.8181546 323.0078125 52.82421875 C304.6500399 35.09760729 280.38338426 30.85064713 255.75 30.75 C254.50347656 30.729375 253.25695313 30.70875 251.97265625 30.6875 C240.00904153 30.63749534 226.29574809 31.98929301 217.6875 41.25 Z " fill="#000000" transform="translate(1794,909)"/>
<path d="M0 0 C65.34 0 130.68 0 198 0 C198 65.01 198 130.02 198 197 C263.01 197 328.02 197 395 197 C395 262.01 395 327.02 395 394 C460.01 394 525.02 394 592 394 C592 459.34 592 524.68 592 592 C559.515625 592.020625 527.03125 592.04125 493.5625 592.0625 C478.14897827 592.07615601 478.14897827 592.07615601 462.42407227 592.09008789 C449.92370605 592.09460449 449.92370605 592.09460449 444.08091736 592.09544373 C439.98012252 592.09637938 435.87934049 592.10014267 431.77854919 592.10557556 C426.55821304 592.11240076 421.3378957 592.11449748 416.1175555 592.11307228 C414.19514768 592.11337058 412.27273925 592.11537343 410.35033524 592.11921513 C407.76657797 592.12414125 405.1828951 592.12300762 402.59913635 592.12025452 C401.45405562 592.12462351 401.45405562 592.12462351 400.28584194 592.12908077 C395.11412483 592.11412483 395.11412483 592.11412483 394 591 C393.90225331 588.47065344 393.87004375 585.96862023 393.87974548 583.43882751 C393.87888947 582.63953827 393.87803345 581.84024902 393.87715149 581.01673889 C393.87548613 578.30923284 393.88103633 575.60178758 393.88647461 572.89428711 C393.8867807 570.93175286 393.88664788 568.9692185 393.88610935 567.0066843 C393.88588278 561.73175456 393.89169565 556.45684732 393.89871979 551.18192291 C393.90439763 546.23948594 393.90468197 541.29705455 393.90539551 536.35461426 C393.91065132 521.88223984 393.92461235 507.40986964 393.9375 492.9375 C393.958125 460.618125 393.97875 428.29875 394 395 C329.32 395 264.64 395 198 395 C198 329.99 198 264.98 198 198 C132.66 198 67.32 198 0 198 C0 132.66 0 67.32 0 0 Z " fill="#32A357" transform="translate(105,896)"/>
<path d="M0 0 C8.58 0 17.16 0 26 0 C26 61.71 26 123.42 26 187 C18.08 187 10.16 187 2 187 C-1.34070796 178.09144543 -1.34070796 178.09144543 -2.76171875 173.8203125 C-6.89619999 161.55547274 -11.44054234 149.68834023 -17 138 C-17.31404785 137.32952637 -17.6280957 136.65905273 -17.95166016 135.96826172 C-25.53852771 119.84764153 -34.69531246 104.78194931 -46 91 C-46.4434375 90.45504883 -46.886875 89.91009766 -47.34375 89.34863281 C-73.60672313 57.17276019 -109.40253747 34.03889222 -151.36962891 29.75830078 C-179.16160704 27.23977332 -207.28379585 32.03690755 -229.49609375 49.8671875 C-230.32238281 50.57101562 -231.14867187 51.27484375 -232 52 C-232.65097656 52.53882813 -233.30195312 53.07765625 -233.97265625 53.6328125 C-247.35791338 65.76796589 -255.17104659 85.46492746 -256.11669922 103.18701172 C-257.07374117 126.61787453 -252.74217116 147.12189461 -237.375 165.5625 C-217.9671519 186.36977547 -188.73483902 199.21579655 -163.63449097 211.68991089 C-155.07987082 215.94398306 -146.53323445 220.21414228 -137.98522282 224.48147678 C-134.76892309 226.08703535 -131.55224362 227.69182366 -128.3347168 229.29492188 C-114.84958246 236.01440288 -101.39714001 242.77709299 -88.08813477 249.84130859 C-82.0659271 253.0338021 -75.97575216 256.08569687 -69.875 259.125 C-68.66418849 259.73153467 -67.45341439 260.33814403 -66.24267578 260.94482422 C-60.50939129 263.80988005 -54.75660027 266.59879528 -48.9050293 269.21435547 C-30.90039929 277.29099647 -15.35663994 289.6124896 -1 303 C-0.20980469 303.72445313 0.58039063 304.44890625 1.39453125 305.1953125 C24.25162528 326.98155721 38.91208437 355.78588517 46.75 386.0625 C46.94875732 386.8162793 47.14751465 387.57005859 47.35229492 388.34667969 C50.6267061 401.64643122 51.38470413 415.11152862 51.3125 428.75 C51.31034485 429.49012329 51.3081897 430.23024658 51.30596924 430.99279785 C51.25069403 442.8753692 50.64789672 454.38427192 48 466 C47.80664062 466.86415527 47.61328125 467.72831055 47.4140625 468.61865234 C40.74082412 497.4793785 27.51115614 524.03984324 7.17578125 545.671875 C5.48066189 547.48568315 3.90753465 549.3022971 2.375 551.25 C-0.78626675 554.91041413 -4.27505114 557.92440831 -8 561 C-9.48306641 562.23943359 -9.48306641 562.23943359 -10.99609375 563.50390625 C-61.34370626 604.8059649 -129.73866596 614.76472283 -192.9375 608.8125 C-223.12397926 605.69256787 -251.69900254 597.25712418 -280.39038086 587.73193359 C-299.19875086 581.07546074 -299.19875086 581.07546074 -318.4375 583.4375 C-327.6685439 589.06145532 -330.0485119 600.36425943 -333 610 C-341.58 610 -350.16 610 -359 610 C-359 539.71 -359 469.42 -359 397 C-350.42 397 -341.84 397 -333 397 C-332.29037109 399.99513672 -332.29037109 399.99513672 -331.56640625 403.05078125 C-317.4071419 462.12584336 -293.12566382 523.34443173 -239.5625 557.1875 C-215.27682262 571.60259813 -189.64695008 579.16849008 -161.37670898 579.24023438 C-159.09906128 579.24984572 -156.82235513 579.28089299 -154.54492188 579.3125 C-141.01491407 579.41091903 -127.71230642 577.80972571 -114.875 573.3125 C-113.76789673 572.93121948 -113.76789673 572.93121948 -112.63842773 572.54223633 C-89.38936973 564.2071035 -72.47783183 548.73677609 -61.30859375 526.65625 C-50.63540196 503.33037722 -48.79515305 476.62582911 -57.59375 452.4296875 C-64.1679485 436.39594783 -75.41734356 423.62017261 -89.4375 413.625 C-90.22898437 413.05974609 -91.02046875 412.49449219 -91.8359375 411.91210938 C-110.41272946 398.84890927 -131.45605018 389.54309609 -151.890625 379.79296875 C-169.83459458 371.23102386 -187.67537455 362.45800655 -205.51953125 353.69042969 C-208.86124482 352.04885328 -212.2044716 350.41050679 -215.55078125 348.77832031 C-246.4616411 333.69975155 -275.54855921 316.34338666 -300.48583984 292.44677734 C-301.9124402 291.08366324 -303.35610006 289.73846759 -304.80078125 288.39453125 C-321.88470126 272.05231544 -335.36587586 251.38560093 -343 229 C-343.22381348 228.3488623 -343.44762695 227.69772461 -343.67822266 227.02685547 C-356.32452256 189.53864356 -354.17594017 145.00742287 -341 108 C-340.76023437 107.32050293 -340.52046875 106.64100586 -340.2734375 105.94091797 C-333.56463677 87.29358517 -323.578604 70.63072787 -310.0078125 56.18359375 C-307.93651707 53.98465084 -307.93651707 53.98465084 -305.9609375 51.42578125 C-282.11616277 21.92855992 -238.75678388 8.88749223 -203 3 C-202.20609863 2.86722656 -201.41219727 2.73445312 -200.59423828 2.59765625 C-174.3864888 -1.5151755 -145.01850681 -0.71227808 -119 4 C-117.69409912 4.2175293 -117.69409912 4.2175293 -116.36181641 4.43945312 C-99.09294783 7.37423969 -82.72176703 13.20715211 -66.20620728 18.87823486 C-60.36704038 20.88235118 -54.51047534 22.82320539 -48.625 24.6875 C-47.90795898 24.91880615 -47.19091797 25.1501123 -46.45214844 25.38842773 C-36.81185125 28.42991052 -24.19837278 30.49059513 -14.671875 26.09375 C-8.03826345 21.75400412 -5.53327497 15.20690878 -3 8 C-1.515 4.04 -1.515 4.04 0 0 Z " fill="#000000" transform="translate(1186,895)"/>
<path d="M0 0 C65.34 0 130.68 0 198 0 C198 65.34 198 130.68 198 198 C132.66 198 67.32 198 0 198 C0 132.66 0 67.32 0 0 Z " fill="#CC2229" transform="translate(105,896)"/>
<path d="M0 0 C65.01 0 130.02 0 197 0 C197 65.34 197 130.68 197 198 C131.99 198 66.98 198 0 198 C0 132.66 0 67.32 0 0 Z " fill="#295AA7" transform="translate(303,1093)"/>
</svg>
